# xmcd
#
# Track frame offsets: 
#        225
#        10802
#        33471
#        47503
#        65564
#        87256
#        113627
#        128135
#        141085
#        159377
#        169881
#        185150
#        206270
#        218466
#        241776
#
# Disc length: 3443 seconds
#
# Revision: 0
# Processed by: cddbd v1.4PL0 Copyright (c) Steve Scherf et al.
# Submitted via: ExactAudioCopy v0.90b4
#
DISCID=c50d700f
DTITLE=Grant Dermody - Crossing That River
DYEAR=2003
DGENRE=Blues
TTITLE0=Breakthrough
TTITLE1=Why You Been Gone So Long?
TTITLE2=Greasy Coat
TTITLE3=Look at the People Standing at the Judgment
TTITLE4=I'll Get to Heaven on My Own
TTITLE5=It's Alright
TTITLE6=I'm Gonna Cross that River of Jordan
TTITLE7=The Leeward Side
TTITLE8=Slow Boat
TTITLE9=Anacosta Two-Step
TTITLE10=Cut You Loose
TTITLE11=What Comes Around
TTITLE12=Boats Up River
TTITLE13=Bye-Bye Baby
TTITLE14=Yew Piney Mountain
EXTD=
EXTT0=by Grant Dermody
EXTT1=by Mickey Newberry
EXTT2=Traditional
EXTT3=by Skip James
EXTT4=by Jow Lewis Walker
EXTT5=by Grant Dermody
EXTT6=Traditional
EXTT7=by John Miller
EXTT8=by Grant Dermody
EXTT9=by Phil Wiggins
EXTT10=Traditional
EXTT11=by Julian Priester
EXTT12=by John Jackson
EXTT13=by Little Hat Jones
EXTT14=Traditional
PLAYORDER=
